<svg width="333" height="82" viewBox="0 0 333 82" fill="none" xmlns="http://www.w3.org/2000/svg">
<rect x="2.5" y="2.5" width="328" height="76.314" rx="12.5" fill="url(#paint0_linear_3945_1438)" stroke="#3E5526" stroke-width="5"/>
<path d="M242.935 49.7068C242.935 49.7068 240.915 54.6119 242.935 62.9217H224.238C224.238 62.9217 224.122 62.0561 225.046 62.0561C225.969 62.0561 226.027 57.9589 226.027 57.6126V24.9507C226.027 24.6044 225.969 20.5072 225.046 20.5072C224.122 20.5072 224.238 19.6416 224.238 19.6416H242.531C242.531 22.4693 239.819 29.1633 239.646 31.7601C239.588 32.2217 239.761 32.5679 239.992 32.6834V32.5679C239.992 31.8178 240.627 31.183 241.377 31.183C242.069 31.183 242.704 31.8178 242.704 32.5679C242.704 33.3758 242.012 34.2991 241.088 34.5877C240.28 34.8185 239.069 34.9339 238.203 34.0683C234.625 30.779 240.742 21.8922 235.144 21.7768H231.855V45.6674C232.432 45.6674 236.299 45.5519 236.299 44.6863C236.299 43.763 237.164 43.8785 237.164 43.8785V49.6491C237.164 49.6491 236.299 49.7645 236.299 48.8989C236.299 47.9756 232.432 47.8602 231.855 47.8602V60.7865H234.971C239.415 60.6134 240.28 53.4001 240.28 51.5534C240.28 49.0143 242.935 49.7068 242.935 49.7068Z" fill="#3E5526"/>
<path d="M218.297 49.7068C218.297 49.7068 216.277 54.6119 218.297 62.9217H199.6C199.6 62.9217 199.485 62.0561 200.408 62.0561C201.331 62.0561 201.389 57.9589 201.389 57.6126V24.9507C201.389 24.6044 201.331 20.5072 200.408 20.5072C199.485 20.5072 199.6 19.6416 199.6 19.6416H217.893C217.893 22.4693 215.181 29.1633 215.008 31.7601C214.95 32.2217 215.123 32.5679 215.354 32.6834V32.5679C215.354 31.8178 215.989 31.183 216.739 31.183C217.431 31.183 218.066 31.8178 218.066 32.5679C218.066 33.3758 217.374 34.2991 216.45 34.5877C215.642 34.8185 214.431 34.9339 213.565 34.0683C209.987 30.779 216.104 21.8922 210.507 21.7768H207.217V45.6674C207.794 45.6674 211.661 45.5519 211.661 44.6863C211.661 43.763 212.526 43.8785 212.526 43.8785V49.6491C212.526 49.6491 211.661 49.7645 211.661 48.8989C211.661 47.9756 207.794 47.8602 207.217 47.8602V60.7865H210.333C214.777 60.6134 215.642 53.4001 215.642 51.5534C215.642 49.0143 218.297 49.7068 218.297 49.7068Z" fill="#3E5526"/>
<path d="M178.354 19.6416C187.645 19.6416 194.8 25.2392 194.8 34.7608C194.8 43.7053 188.337 49.0721 181.181 49.0721C180.258 49.0721 179.335 48.9566 178.412 48.7835V57.6126C178.412 57.9589 178.527 62.0561 179.45 62.0561C180.374 62.0561 180.258 62.9217 180.258 62.9217H170.794C170.794 62.9217 170.679 62.0561 171.602 62.0561C172.525 62.0561 172.583 57.9589 172.583 57.6126V24.9507C172.583 24.6044 172.525 20.5072 171.602 20.5072C170.679 20.5072 170.794 19.6416 170.794 19.6416H178.354ZM178.931 46.7061C184.009 46.7061 189.26 41.8587 189.26 34.6454C189.26 25.9894 183.432 22.123 178.412 22.0076V46.7061H178.931Z" fill="#3E5526"/>
<path d="M155.181 19.6416C160.317 19.8148 164.818 23.7388 164.818 28.5862V53.9771C164.876 58.8245 160.144 62.864 155.008 62.9217C149.815 62.8062 145.256 58.8245 145.256 53.9771V28.5862C145.256 23.6811 149.872 19.7571 155.124 19.6416H155.181ZM158.99 53.9771V28.5862C158.99 25.9317 157.201 23.6811 155.066 22.4693C152.873 23.6234 151.084 25.9317 151.084 28.5862V53.9771C151.084 56.6316 152.873 58.9399 155.008 60.094C157.201 58.9399 158.99 56.6316 158.99 53.9771ZM155.759 41.5702C155.759 34.6454 155.066 29.0478 155.066 29.0478C155.066 29.0478 154.316 34.6454 154.316 41.5702C154.316 48.495 155.066 54.0925 155.066 54.0925C155.066 54.0925 155.759 48.495 155.759 41.5702Z" fill="#3E5526"/>
<path d="M136.796 47.2254C136.219 47.5717 135.642 47.8025 135.065 47.9179V57.6126C135.065 57.7281 135.122 62.0561 136.103 62.0561C136.969 62.0561 136.854 62.9217 136.854 62.9217H127.447C127.447 62.9217 127.332 62.0561 128.198 62.0561C129.179 62.0561 129.236 57.8435 129.236 57.6126V47.7448C128.14 47.5717 126.986 47.4563 125.716 47.4563C120.061 47.4563 120.465 52.6499 120.465 52.6499V57.6126C120.465 57.7281 120.523 62.0561 121.504 62.0561C122.369 62.0561 122.311 62.9217 122.311 62.9217H114.925C114.925 62.9217 114.81 62.0561 115.733 62.0561C116.656 62.0561 116.714 57.8435 116.714 57.6126V24.9507C116.714 24.7198 116.656 20.5072 115.733 20.5072C114.81 20.5072 114.925 19.6416 114.925 19.6416H122.311C122.311 19.6416 122.369 20.5072 121.504 20.5072C120.523 20.5072 120.465 24.8353 120.465 24.9507V47.1677C122.542 44.8595 126.12 44.7441 129.236 44.8018V24.9507C129.236 24.7198 129.179 20.5072 128.198 20.5072C127.332 20.5072 127.447 19.6416 127.447 19.6416H136.854C136.854 19.6416 136.969 20.5072 136.103 20.5072C135.122 20.5072 135.065 24.8353 135.065 24.9507V43.9362C137.2 42.4935 136.854 39.839 136.854 39.839C139.797 41.6856 139.277 45.8405 136.796 47.2254Z" fill="#3E5526"/>
<path d="M95.6696 28.1245C95.6696 36.3188 109.404 41.1662 109.404 52.5344C109.404 58.2474 105.653 63.441 98.4396 63.441C93.0728 63.441 89.2065 59.2284 89.2065 54.0925C89.2065 47.0523 96.2467 47.9179 96.2467 51.438C93.3037 51.438 93.7653 60.7288 98.4396 60.7288C101.383 60.7288 103.633 57.4972 103.633 52.5344C103.633 42.1472 89.899 38.9733 89.899 28.1245C89.899 22.1807 94.6309 19.757 98.7858 19.1222C103.056 18.4875 107.557 19.6416 107.557 19.6416C107.557 22.4692 104.845 29.1632 104.614 31.76C104.614 32.2217 104.787 32.5679 105.018 32.6833V32.5679C105.018 31.8177 105.595 31.1829 106.345 31.1829C107.096 31.1829 107.73 31.8177 107.73 32.5679C107.73 33.3758 106.98 34.2991 106.057 34.5876C105.307 34.8185 104.095 34.9339 103.171 34.0683C99.6514 30.779 106.461 21.7767 99.7668 21.7767C97.1123 21.7767 95.6696 24.3736 95.6696 28.1245Z" fill="#3E5526"/>
<defs>
<linearGradient id="paint0_linear_3945_1438" x1="166.5" y1="92.4462" x2="161.801" y2="-19.405" gradientUnits="userSpaceOnUse">
<stop offset="0.156667" stop-color="#D4A75B"/>
<stop offset="0.576667" stop-color="#F4C577"/>
<stop offset="0.876667" stop-color="#D4A75B"/>
</linearGradient>
</defs>
</svg>
