<svg width="958" height="307" viewBox="0 0 958 307" fill="none" xmlns="http://www.w3.org/2000/svg">
<g clip-path="url(#clip0_4354_365)">
<path fill-rule="evenodd" clip-rule="evenodd" d="M174.819 216.677C173.138 230.581 164.733 241.717 151.714 247.293C144.464 250.399 134.729 252.076 127.023 251.549C115.002 251.088 103.709 248.158 93.2997 242.802C89.5809 240.887 84.0371 237.064 79.7802 233.483C78.702 232.578 78.574 231.998 79.2874 230.984C79.6726 230.402 80.3828 229.352 81.9528 227.046C84.2297 223.702 84.5138 223.283 84.7699 222.891C85.4984 221.77 86.682 221.672 87.8495 222.593C87.9722 222.689 87.9722 222.689 88.0647 222.761C88.2563 222.91 88.2563 222.91 88.7082 223.262C89.1655 223.619 89.4367 223.83 89.5464 223.913C100.773 232.726 113.848 237.809 127.048 238.317C145.413 238.066 158.619 229.789 160.985 217.08C163.587 203.093 152.633 191.01 131.201 184.275C124.499 182.169 107.556 175.371 104.432 173.535C89.7627 164.907 82.904 153.606 83.8789 139.648C85.3725 120.3 103.292 105.869 125.934 105.772C136.06 105.751 146.164 107.861 155.871 111.961C159.308 113.413 165.444 116.76 167.563 118.346C168.783 119.244 169.024 120.291 168.325 121.42C167.934 122.075 167.289 123.114 165.927 125.278L165.912 125.302C164.121 128.153 164.065 128.242 163.654 128.909C162.943 129.993 162.108 130.094 160.828 129.279C150.441 122.285 138.926 118.766 126.262 118.512C110.496 118.825 98.6788 128.23 97.9019 141.042C97.6953 152.615 106.354 161.063 125.058 167.505C163.024 179.734 177.553 194.072 174.819 216.677ZM127.931 16.9048C152.649 16.9048 172.797 40.4174 173.74 69.8501H82.1239C83.0665 40.4174 103.214 16.9048 127.931 16.9048ZM255.854 75.3837C255.854 72.3274 253.398 69.8501 250.37 69.8501H190.987C189.531 30.988 161.857 0 127.931 0C94.0067 0 66.3329 30.988 64.8759 69.8501L5.40822 69.8512C2.42649 69.9055 0.0258305 72.3622 0.0258305 75.3837C0.0258305 75.5281 0.0312258 75.6715 0.0419655 75.8127H0L8.4771 263.123C8.47818 263.645 8.49752 264.17 8.53628 264.699C8.54491 264.819 8.55459 264.937 8.56427 265.055L8.58257 265.451L8.60299 265.471C9.89102 278.506 19.3279 289.004 32.1598 289.488L32.1888 289.516H220.825C220.914 289.517 221.004 289.518 221.093 289.518C221.182 289.518 221.272 289.517 221.361 289.516H221.762L221.771 289.509C234.827 289.151 245.402 278.507 246.519 265.312L246.525 265.305L246.534 265.128C246.545 264.989 246.555 264.851 246.563 264.712C246.584 264.38 246.598 264.049 246.603 263.72L255.853 75.6694H255.846C255.852 75.5749 255.854 75.4792 255.854 75.3837ZM884.716 197.462C888.35 185.579 899.34 177.657 912.164 177.657C924.404 177.657 936.059 185.99 940.085 197.44L940.361 198.227H884.481L884.716 197.462ZM952.798 214.678C952.873 214.682 952.873 214.682 952.984 214.683C953.095 214.682 953.095 214.682 953.208 214.678C955.883 214.555 958.001 212.269 958.001 209.487C958.001 209.352 957.996 209.236 957.985 209.049C957.988 209.015 957.988 208.947 957.988 208.728C957.988 182.484 937.463 161.216 912.148 161.216C886.834 161.216 866.309 182.484 866.309 208.728C866.309 210.685 866.422 212.636 866.65 214.575L866.666 214.678L866.737 215.19C867.997 224.633 872.017 233.3 878.365 240.313C878.362 240.31 878.369 240.316 878.401 240.353C885.44 248.118 894.997 253.409 905.596 255.388L905.734 255.415V255.401L906.423 255.516C906.777 255.577 907.15 255.636 907.65 255.714C921.601 257.395 933.976 255.379 944.455 250.09C947.035 248.787 949.355 247.349 951.366 245.83C952.012 245.34 952.594 244.867 953.098 244.424C953.357 244.196 953.563 244.004 953.673 243.893C956.037 241.451 956.185 240.586 954.758 238.356C953.188 235.851 951.803 233.717 950.615 231.95C950.2 231.331 949.838 230.804 949.534 230.367C949.366 230.126 949.366 230.126 949.26 229.974C949.219 229.915 949.219 229.915 949.19 229.877L949.174 229.858C947.883 228.246 946.999 228.099 945.565 229.367C945.412 229.503 944.901 229.899 944.809 229.997C934.728 238.97 920.962 241.857 907.215 238.973C904.655 238.284 902.261 237.409 900.056 236.353C891.443 232.024 885.341 224.311 883.581 215.383L883.442 214.678L952.798 214.678ZM775.637 197.462C779.272 185.579 790.262 177.657 803.085 177.657C815.326 177.657 826.98 185.99 831.007 197.44L831.282 198.227H775.403L775.637 197.462ZM843.719 214.678C843.795 214.682 843.795 214.682 843.906 214.683C844.016 214.682 844.016 214.682 844.129 214.678C846.804 214.555 848.921 212.269 848.921 209.487C848.921 209.352 848.917 209.236 848.906 209.049C848.908 209.015 848.908 208.947 848.908 208.728C848.908 182.484 828.384 161.216 803.069 161.216C777.756 161.216 757.229 182.484 757.229 208.728C757.229 210.685 757.344 212.636 757.572 214.575L757.587 214.678L757.659 215.19C758.919 224.633 762.939 233.3 769.287 240.313C769.284 240.31 769.29 240.316 769.322 240.353C776.361 248.118 785.918 253.409 796.517 255.388L796.656 255.415V255.401L797.344 255.516C797.698 255.577 798.071 255.636 798.572 255.714C812.523 257.395 824.898 255.379 835.376 250.09C837.956 248.787 840.276 247.349 842.287 245.83C842.933 245.34 843.515 244.867 844.018 244.424C844.277 244.196 844.484 244.004 844.594 243.893C846.958 241.451 847.105 240.586 845.679 238.356C844.109 235.851 842.723 233.717 841.536 231.95C841.121 231.331 840.759 230.804 840.456 230.367C840.287 230.126 840.287 230.126 840.181 229.974C840.14 229.915 840.14 229.915 840.11 229.877L840.1 229.858C838.807 228.246 837.923 228.099 836.49 229.367C836.337 229.503 835.826 229.899 835.733 229.997C825.654 238.97 811.887 241.857 798.141 238.973C795.581 238.284 793.186 237.409 790.981 236.353C782.369 232.024 776.268 224.311 774.507 215.383L774.368 214.678L843.719 214.678ZM692.39 240.846C675.341 240.846 661.397 227.297 660.969 210.317V208.719C661.392 191.767 675.341 178.215 692.39 178.215C709.747 178.215 723.818 192.236 723.818 209.531C723.818 226.826 709.747 240.846 692.39 240.846ZM692.4 161.603C681.217 161.603 670.533 165.42 661.946 172.422L660.97 173.217V164.454C660.97 162.117 660.469 161.603 658.109 161.603H647.135C644.745 161.603 644.273 162.079 644.273 164.454V304.149C644.273 306.443 644.807 307 647.135 307H658.109C660.446 307 660.97 306.455 660.97 304.149V245.892L661.946 246.687C670.534 253.69 681.219 257.508 692.4 257.508C718.979 257.508 740.525 236.038 740.525 209.555C740.525 183.072 718.979 161.603 692.4 161.603ZM579.378 239.776C561.986 239.776 547.886 225.878 547.886 208.731C547.886 191.583 561.987 177.685 579.378 177.685C596.768 177.685 610.868 191.583 610.868 208.731C610.868 225.877 596.769 239.776 579.378 239.776ZM579.388 161.216C552.757 161.216 531.171 182.5 531.171 208.754C531.171 235.007 552.757 256.293 579.388 256.293C606.019 256.293 627.603 235.007 627.603 208.754C627.603 182.5 606.02 161.216 579.388 161.216ZM471.902 162.272C462.181 162.272 452.773 165.405 444.969 171.195L444.02 171.899V107.022C444.02 104.872 443.316 104.17 441.171 104.17H429.684C427.364 104.17 426.834 104.726 426.834 107.022V255.023C426.834 257.263 427.407 257.877 429.684 257.877H441.171C443.302 257.877 444.02 257.14 444.02 255.023V206.681C444.139 191.464 456.59 179.181 471.902 179.181C487.254 179.181 499.719 191.523 499.784 206.791V255.023C499.784 257.471 500.19 257.876 502.634 257.876H514.093C516.522 257.876 516.943 257.459 516.943 255.023V206.65C516.852 182.248 496.552 162.272 471.902 162.272ZM311.836 231.031L311.809 231.072C310.171 233.56 309.485 234.606 309.102 235.206C307.811 237.133 307.971 237.992 309.943 239.663C314.545 243.381 320.46 247.287 324.451 249.243C335.556 254.686 347.549 257.562 360.259 257.822C368.47 258.237 378.781 256.28 386.46 252.848C400.361 246.632 409.216 234.517 410.767 219.595C413.281 195.416 397.586 180.301 357.159 168.119L357.148 168.116C338.313 162.027 329.465 153.932 329.461 142.63C330.016 130.139 341.57 120.807 357.159 120.225C369.716 120.256 380.818 123.599 391.726 130.636C394.027 132.034 395.087 131.776 396.634 129.765C396.812 129.468 397.306 128.748 399.374 125.772L399.38 125.762C401.311 122.982 401.947 122.054 402.105 121.78C403.408 119.322 403.222 118.374 400.87 116.703C398.553 115.039 392.028 111.636 388.296 110.143C377.918 105.993 367.189 103.977 356.51 104.185C332.208 104.714 313.255 120.557 312.006 141.34C311.213 156.352 318.814 168.424 334.695 177.348C339.147 179.704 355.426 185.872 363.024 188.103C384.628 194.444 395.892 206.111 393.565 219.875C391.451 232.38 378.379 240.697 360.036 241.266C346.733 240.989 333.331 236.102 321.694 227.336C321.635 227.294 321.34 227.074 320.797 226.667C320.032 226.096 320.032 226.096 319.918 226.01C317.545 224.369 316.15 224.505 314.701 226.668C314.527 226.936 312.724 229.682 311.836 231.031Z" fill="#EE4D2D"/>
</g>
<defs>
<clipPath id="clip0_4354_365">
<rect width="958" height="307" fill="white"/>
</clipPath>
</defs>
</svg>
